<svg width="709" height="167" viewBox="0 0 709 167" fill="none" xmlns="http://www.w3.org/2000/svg">
<path d="M85.3497 72.176C85.3497 68.848 84.3897 66.032 82.4057 63.792C80.4217 61.552 78.0537 60.016 75.1737 59.248L84.5177 46.064V43.76H57.3177V51.568H71.3977L62.5657 63.92V66.16H67.8777C73.5097 66.16 76.5177 68.336 76.5177 72.24C76.5177 76.272 73.4457 78.768 69.1577 78.768C65.2537 78.768 62.6297 76.784 60.0697 72.944L54.0537 77.168C56.9337 82.992 62.4377 86.768 69.4137 86.768C78.1817 86.768 85.3497 80.688 85.3497 72.176Z" fill="white"/>
<path d="M121.755 58.16C121.755 49.392 114.523 42.992 106.203 42.992C98.0747 42.864 90.5227 49.584 90.7147 58.096C90.5227 66.288 97.6907 72.624 104.667 72.432H104.987L95.1947 86H105.435L115.931 71.408C117.979 68.592 119.451 66.288 120.347 64.432C121.307 62.576 121.755 60.528 121.755 58.16ZM113.179 58.096C113.179 62.128 110.107 65.2 106.203 65.2C102.363 65.2 99.2267 62.128 99.2267 58.096C99.2267 54 102.363 50.928 106.203 50.928C110.107 50.928 113.179 54.064 113.179 58.096Z" fill="white"/>
<path d="M157.692 58.16C157.692 49.392 150.46 42.992 142.14 42.992C134.012 42.864 126.46 49.584 126.652 58.096C126.46 66.288 133.628 72.624 140.604 72.432H140.924L131.132 86H141.372L151.868 71.408C153.916 68.592 155.388 66.288 156.284 64.432C157.244 62.576 157.692 60.528 157.692 58.16ZM149.116 58.096C149.116 62.128 146.044 65.2 142.14 65.2C138.3 65.2 135.164 62.128 135.164 58.096C135.164 54 138.3 50.928 142.14 50.928C146.044 50.928 149.116 54.064 149.116 58.096Z" fill="white"/>
<path d="M193.63 58.16C193.63 49.392 186.398 42.992 178.078 42.992C169.95 42.864 162.398 49.584 162.59 58.096C162.398 66.288 169.566 72.624 176.542 72.432H176.862L167.07 86H177.31L187.806 71.408C189.854 68.592 191.326 66.288 192.222 64.432C193.182 62.576 193.63 60.528 193.63 58.16ZM185.054 58.096C185.054 62.128 181.982 65.2 178.078 65.2C174.238 65.2 171.102 62.128 171.102 58.096C171.102 54 174.238 50.928 178.078 50.928C181.982 50.928 185.054 54.064 185.054 58.096Z" fill="white"/>
<path d="M216.465 70.128C216.337 79.28 224.145 86.96 233.425 86.768C239.569 86.768 244.433 83.76 247.185 78.896L241.169 74.288C239.121 77.168 236.817 78.832 233.553 78.832C228.689 78.832 225.233 75.184 225.233 70.128C225.233 65.2 228.689 61.488 233.553 61.488C236.881 61.488 239.185 63.216 241.169 66.096L247.185 61.424C244.433 56.56 239.633 53.616 233.425 53.616C224.017 53.616 216.465 60.848 216.465 70.128Z" fill="white"/>
<path d="M251.152 70.128C250.96 79.152 258.768 86.896 268.048 86.704C277.328 86.896 285.328 79.152 285.136 70.128C285.328 61.104 277.392 53.488 268.112 53.616C258.832 53.424 250.96 61.104 251.152 70.128ZM276.304 70.192C276.304 75.12 272.784 78.768 268.112 78.768C263.312 78.768 259.92 75.12 259.92 70.192C259.92 65.136 263.312 61.488 268.112 61.488C272.784 61.488 276.304 65.264 276.304 70.192Z" fill="white"/>
<path d="M291.882 86H300.522V38H291.882V86Z" fill="white"/>
<path d="M309.069 86H317.709V38H309.069V86Z" fill="white"/>
<path d="M355.377 73.072C355.761 71.472 355.953 69.872 355.953 68.336C355.953 60.08 349.809 53.616 341.041 53.616C331.889 53.424 324.273 61.04 324.465 70.192C324.273 79.344 332.017 86.96 341.809 86.768C346.481 86.768 350.705 85.168 354.481 82.032L350.897 76.144C348.145 78.256 345.201 79.344 342.065 79.344C337.457 79.344 334.193 77.104 333.169 73.072H355.377ZM333.169 66.992C334.129 63.088 337.073 60.592 340.721 60.592C344.497 60.592 347.505 63.088 347.569 66.992H333.169Z" fill="white"/>
<path d="M360.902 70.128C360.774 79.28 368.582 86.96 377.862 86.768C384.006 86.768 388.87 83.76 391.622 78.896L385.606 74.288C383.558 77.168 381.254 78.832 377.99 78.832C373.126 78.832 369.67 75.184 369.67 70.128C369.67 65.2 373.126 61.488 377.99 61.488C381.318 61.488 383.622 63.216 385.606 66.096L391.622 61.424C388.87 56.56 384.07 53.616 377.862 53.616C368.454 53.616 360.902 60.848 360.902 70.128Z" fill="white"/>
<path d="M418.359 78.768C416.119 78.96 414.775 79.024 414.263 79.024C410.167 79.024 408.375 77.68 408.375 74.096V61.616H417.335V54.32H408.375V46.32H399.735V54.32H394.743V61.616H399.735V74.864C399.735 82.8 404.407 86.768 412.407 86.768C414.327 86.768 416.311 86.512 418.359 86V78.768Z" fill="white"/>
<path d="M424.632 86H433.272V54.32H424.632V86ZM423.416 42.8C423.416 45.808 425.848 48.112 428.92 48.112C431.992 48.112 434.488 45.808 434.488 42.8C434.488 39.728 431.992 37.424 428.92 37.424C425.848 37.424 423.416 39.728 423.416 42.8Z" fill="white"/>
<path d="M440.027 70.128C439.835 79.152 447.643 86.896 456.923 86.704C466.203 86.896 474.203 79.152 474.011 70.128C474.203 61.104 466.267 53.488 456.987 53.616C447.707 53.424 439.835 61.104 440.027 70.128ZM465.179 70.192C465.179 75.12 461.659 78.768 456.987 78.768C452.187 78.768 448.795 75.12 448.795 70.192C448.795 65.136 452.187 61.488 456.987 61.488C461.659 61.488 465.179 65.264 465.179 70.192Z" fill="white"/>
<path d="M509.877 66.352C509.877 58.672 505.333 53.616 497.973 53.616C494.197 53.616 490.933 54.96 488.693 57.2V54.32H480.757V86H489.397V67.504C489.397 63.856 491.893 61.36 495.413 61.36C498.933 61.36 501.301 63.856 501.301 67.504V86H509.877V66.352Z" fill="white"/>
<path d="M515.314 80.624C518.194 84.464 522.866 86.768 528.434 86.768C532.018 86.768 534.962 85.872 537.266 84.08C539.634 82.288 540.786 79.792 540.786 76.656C540.786 71.984 538.034 69.488 531.89 66.992L528.818 65.712C526.322 64.688 525.49 64.112 525.49 62.896C525.49 61.424 526.77 60.656 528.882 60.656C531.506 60.656 533.874 61.68 535.986 63.664L540.338 58.352C537.458 55.216 533.682 53.616 528.946 53.616C522.034 53.616 517.298 57.136 517.298 63.088C517.298 67.76 520.114 70.384 525.938 72.752L529.33 74.16C531.698 75.184 532.594 75.696 532.594 77.04C532.594 78.768 530.866 79.664 528.562 79.664C525.426 79.664 522.418 78.256 519.666 75.376L515.314 80.624Z" fill="white"/>
<path d="M547.127 97.392H553.975L557.367 78.128H547.511L547.127 97.392Z" fill="white"/>
<path d="M622.298 42.992L604.442 65.84L586.586 42.992H583.77V86H592.41V63.472L603.034 76.784H605.85L616.474 63.472V86H625.114V42.992H622.298Z" fill="white"/>
<path d="M633.944 86H642.584V54.32H633.944V86ZM632.728 42.8C632.728 45.808 635.16 48.112 638.232 48.112C641.304 48.112 643.8 45.808 643.8 42.8C643.8 39.728 641.304 37.424 638.232 37.424C635.16 37.424 632.728 39.728 632.728 42.8Z" fill="white"/>
<path d="M680.252 66.352C680.252 58.672 675.708 53.616 668.348 53.616C664.572 53.616 661.308 54.96 659.068 57.2V54.32H651.132V86H659.772V67.504C659.772 63.856 662.268 61.36 665.788 61.36C669.308 61.36 671.676 63.856 671.676 67.504V86H680.252V66.352Z" fill="white"/>
<path d="M708.921 78.768C706.681 78.96 705.337 79.024 704.825 79.024C700.729 79.024 698.937 77.68 698.937 74.096V61.616H707.897V54.32H698.937V46.32H690.297V54.32H685.305V61.616H690.297V74.864C690.297 82.8 694.969 86.768 702.969 86.768C704.889 86.768 706.873 86.512 708.921 86V78.768Z" fill="white"/>
<path d="M266.369 129.904C266.369 126.32 268.225 124.976 272.129 124.976C272.897 124.976 273.729 125.04 274.689 125.168V117.936C273.217 117.488 271.617 117.232 269.953 117.232C262.337 117.232 257.729 121.2 257.729 129.136V134.32H253.249V141.616H257.729V166H266.369V141.616H273.345V134.32H266.369V129.904Z" fill="white"/>
<path d="M276.34 150.128C276.148 159.152 283.956 166.896 293.236 166.704C302.516 166.896 310.516 159.152 310.324 150.128C310.516 141.104 302.58 133.488 293.3 133.616C284.02 133.424 276.148 141.104 276.34 150.128ZM301.492 150.192C301.492 155.12 297.972 158.768 293.3 158.768C288.5 158.768 285.108 155.12 285.108 150.192C285.108 145.136 288.5 141.488 293.3 141.488C297.972 141.488 301.492 145.264 301.492 150.192Z" fill="white"/>
<path d="M336.525 134.32C335.693 134.064 334.797 133.936 333.709 133.936C330.189 133.936 327.117 135.472 325.005 138.096V134.32H317.069V166H325.709V150.192C325.709 144.752 329.037 141.936 334.221 141.936H336.525V134.32Z" fill="white"/>
<path d="M373.835 158.64L379.275 152.88C382.283 149.744 384.523 146.928 386.059 144.496C387.595 142 388.363 139.376 388.363 136.496C388.363 128.816 382.155 122.992 373.707 122.992C364.683 122.992 358.795 129.776 358.795 136.944C358.795 138.16 358.923 139.376 359.243 140.528H367.947C367.755 139.248 367.627 138.224 367.627 137.456C367.627 133.616 369.995 130.992 373.579 130.992C377.163 130.992 379.467 133.552 379.467 137.2C379.467 140.336 377.675 143.28 373.515 147.824L358.411 164.208V166.064L389.579 166V158.64H373.835Z" fill="white"/>
<path d="M394.826 157.424C398.09 163.12 403.978 166.768 411.146 166.768C419.594 166.768 425.93 161.84 425.93 154.096C425.93 148.4 422.602 144.88 415.498 141.744L410.698 139.632C407.114 138.032 405.77 137.008 405.77 134.768C405.77 132.144 408.01 130.672 411.018 130.672C414.218 130.672 416.906 132.272 419.082 135.536L424.97 130.992C422.346 126.128 417.482 122.992 411.018 122.992C403.018 122.992 397.002 127.728 397.002 134.96C397.002 140.592 400.778 144.24 407.242 147.12L411.786 149.168C415.818 151.024 417.162 151.92 417.162 154.416C417.162 157.296 414.922 159.088 411.146 159.088C406.538 159.088 403.53 156.72 400.778 152.944L394.826 157.424Z" fill="white"/>
<path d="M431.088 144.88C430.896 156.976 441.328 167.024 453.488 166.768C465.648 167.024 476.208 156.976 476.016 144.88C476.208 132.784 465.648 122.736 453.488 122.992C441.328 122.736 430.896 132.784 431.088 144.88ZM467.12 144.88C467.12 153.008 461.296 158.768 453.552 158.768C445.744 158.768 439.984 153.008 439.984 144.88C439.984 136.752 445.744 130.992 453.552 130.992C461.296 130.992 467.12 136.88 467.12 144.88Z" fill="white"/>
<path d="M483.333 166H510.469V158.192H491.973V123.76H483.333V166Z" fill="white"/>
<path d="M122.016 14.4969C102.701 14.7115 85.5803 16.9507 67.6058 24.688C45.5328 34.1897 20.4082 46.5588 8.35889 68.5619C2.75842 78.7888 -0.71358 94.8141 4.73153 105.872C12.2071 121.053 34.3069 129.765 49.9872 131.523C81.3107 135.033 110.436 127.534 139.03 115.199C167.628 102.863 202.033 88.0288 223.151 64.1572C236.815 48.7108 237.244 28.4406 219.005 17.0878C189.103 -1.52476 149.388 2.56154 115.798 2.0602" stroke="#DCF085" stroke-width="3" stroke-linecap="round"/>
</svg>
