<svg width="99" height="32" viewBox="0 0 99 32" fill="none" xmlns="http://www.w3.org/2000/svg">
<path opacity="0.2" fill-rule="evenodd" clip-rule="evenodd" d="M28.7014 21.827L26.7242 30.1417L24.2536 30.7081C20.3707 31.5977 16.3572 31.9375 12.3876 31.9375C6.44757 31.9375 0 31.0553 0 23.0155C0 20.5351 0.478245 18.0003 0.99254 15.5983C1.52148 13.1339 2.19519 10.7087 3.13704 8.39369C4.83934 4.2443 8.40392 1.6458 12.3876 0.64534C14.4814 0.11817 16.6473 0 18.7918 0C21.5587 0 24.3409 0.18062 27.0938 0.487982C28.4919 0.637378 29.89 0.85045 31.2735 1.13393L33.396 1.56681L31.0273 11.5034L28.9701 11.2279C27.0938 10.9757 25.2028 10.8654 23.3123 10.8654C20.7549 10.8654 17.5384 10.9438 15.4813 12.7947C14.4093 13.7634 13.8804 15.1961 13.4748 16.5976C13.2066 17.5184 12.9892 18.4797 12.9892 19.4557C12.9892 22.7081 16.4738 22.7154 18.6544 22.7154C20.2485 22.7154 21.8421 22.6365 23.4283 22.4473L28.7014 21.827ZM28.9262 30.473L30.9546 21.9134L32.9904 22.2685C36.1849 22.8269 39.438 23.2371 42.6759 23.2371C44.1033 23.2371 48.319 23.512 48.319 21.0317C48.319 19.929 47.2037 19.6149 46.3779 19.6388L43.4082 19.7177C41.7999 19.7557 40.1697 19.591 38.5761 19.3712C36.6418 19.103 34.4758 18.6071 33.5487 16.4966C33.0991 15.4575 32.7516 14.2844 32.7516 13.1192C32.7516 10.9304 33.4546 8.72554 34.2297 6.74116C35.7292 2.89055 38.8009 1.38681 42.3942 0.654523C44.9223 0.134701 47.5084 0.095514 50.0732 0.095514C53.0215 0.095514 55.9625 0.221644 58.9108 0.434104C60.6852 0.568192 62.4822 0.654521 64.2425 0.930046L65.9741 1.19822L63.8363 10.3952L60.7292 10.0799C57.991 9.81234 55.2448 9.63906 52.492 9.63906C51.0432 9.63906 48.7393 9.63906 47.3992 10.2611C46.7547 10.5605 46.2911 11.0797 46.2911 11.8677C46.2911 13.0568 47.2403 13.2539 48.1602 13.2852C48.8699 13.309 49.5803 13.2539 50.2833 13.2613L52.0137 13.2852L55.6211 13.3482C57.2947 13.3795 59.1857 13.5766 60.4971 14.8281C61.5623 15.8518 62.0614 17.4658 62.0614 18.9855C62.0614 21.2539 61.453 23.5524 60.6633 25.6311C59.2364 29.3874 56.172 30.6946 52.7089 31.3559C49.8912 31.9002 46.9936 31.9394 44.132 31.9394C42.8572 31.9394 41.5678 31.9394 40.2925 31.8212L33.7075 31.2218L31.3895 30.9781L28.9262 30.473ZM68.2763 0.503902H80.758L75.9986 20.5045C75.8691 21.0403 75.7457 21.5833 75.7018 22.1344C75.5795 23.6853 77.1506 23.9927 78.2237 23.9927C80.7157 23.9927 81.5263 22.4491 82.0998 20.0784L86.8084 0.503902H99L93.6464 23.4018C91.7706 31.4018 81.8029 32 75.637 32C72.4797 32 68.7551 31.8592 65.9301 30.2048C64.127 29.1499 62.8218 27.354 62.8218 25.0709C62.8218 24.0318 63.0032 22.9922 63.2421 21.9917L68.2763 0.503902Z" fill="white"/>
</svg>
