<svg width="133" height="17" viewBox="0 0 133 17" fill="none" xmlns="http://www.w3.org/2000/svg">
<g opacity="0.2" clip-path="url(#clip0)">
<path fill-rule="evenodd" clip-rule="evenodd" d="M19.1246 0.827576V3.04661H5.23072V7.27171H18.2985V9.46868H5.23038V16.2759H0.105621V0.827576H19.1246ZM31.5572 0.827576L39.5268 16.2759H34.5528L33.1565 13.2598H22.0777L20.6697 16.2759H17.3956L25.3871 0.827576H31.5572ZM46.5718 0.827576V2.10574C46.8944 1.57498 47.9097 0.827576 49.1089 0.827576H57.6951C59.5382 0.827576 60.2748 2.10574 60.2748 3.53029V16.2759H55.3032V4.22987C55.3032 3.53029 54.7513 3.04661 54.1984 3.04661H48.5778C47.9578 3.04661 46.5714 3.74877 46.5714 5.05084V16.2759H41.6016V0.827576H46.5714H46.5718ZM82.7518 0.827576V3.26509H75.0391V16.2759H70.0886V3.26509H62.3496V0.827576H82.7518ZM101.13 0.827576C102.818 0.827576 103.846 1.9119 103.846 3.74877V13.3547C103.846 15.1886 102.977 16.2759 101.268 16.2759H86.7129C85.0244 16.2759 84.135 15.2129 84.135 13.3061V3.67521C84.135 1.98693 85.1613 0.827576 86.8488 0.827576H101.13H101.13ZM111.783 0.827576V2.10574C112.095 1.57498 113.08 0.827576 114.242 0.827576H119.84C121.139 0.827576 121.853 1.47824 122.165 2.39741C122.479 1.69673 123.622 0.827576 124.787 0.827576H130.387C132.156 0.827576 132.893 2.10574 132.893 3.53029V16.2759H128.07V4.22987C128.07 3.53029 127.552 3.04661 126.993 3.04661H124.27C123.554 3.04661 122.349 3.77084 122.349 4.78381V16.2759H117.524V4.22987C117.524 3.53029 117.008 3.04661 116.449 3.04661H113.729C113.125 3.04661 111.783 3.74877 111.783 5.05084V16.2759H106.958V0.827576H111.783ZM97.6724 3.04661H90.3532C89.4427 3.04661 89.054 3.45856 89.054 4.44652V12.4855C89.054 13.3782 89.4427 13.8133 90.3532 13.8133H97.5807C98.5168 13.8133 98.9259 13.4768 98.9259 12.5341V4.42482C98.9259 3.5553 98.6313 3.04661 97.6724 3.04661ZM28.2738 3.04661H27.1776L23.0823 11.0624H32.1474L28.2745 3.04661H28.2738Z" fill="white"/>
</g>
<defs>
<clipPath id="clip0">
<rect width="133" height="15.4483" fill="white" transform="translate(0 0.827576)"/>
</clipPath>
</defs>
</svg>
