<svg width="40" height="40" viewBox="0 0 40 40" fill="none" xmlns="http://www.w3.org/2000/svg">
<circle cx="20" cy="20" r="20" fill="#1DA1F2"/>
<g clip-path="url(#clip0)">
<path d="M28 15.0377C27.4116 15.2984 26.7795 15.4746 26.115 15.5542C26.7929 15.1484 27.313 14.5043 27.5582 13.7376C26.924 14.1139 26.2214 14.3873 25.4738 14.5339C24.8748 13.8969 24.0222 13.498 23.0779 13.498C21.2656 13.498 19.7957 14.968 19.7957 16.7817C19.7957 17.0331 19.8241 17.2837 19.8802 17.5287C17.1511 17.3913 14.7334 16.0841 13.1141 14.0984C12.8322 14.5846 12.6701 15.1484 12.6701 15.7487C12.6701 16.8874 13.2501 17.893 14.1302 18.4814C13.6089 18.4648 13.0992 18.3239 12.6434 18.0706V18.1128C12.6434 19.7032 13.7743 21.0301 15.2767 21.3317C14.9948 21.4078 14.704 21.4462 14.4121 21.4459C14.2047 21.446 13.9978 21.4267 13.7941 21.3881C14.2119 22.6917 15.424 23.6416 16.8608 23.667C15.7368 24.5478 14.3212 25.0727 12.7836 25.0727C12.5186 25.0727 12.2572 25.0572 12 25.0269C13.453 25.9592 15.178 26.5018 17.0313 26.5018C23.0702 26.5018 26.3715 21.5001 26.3715 17.1623C26.3715 17.0213 26.368 16.879 26.3616 16.7381C27.0029 16.2744 27.5596 15.6973 27.9986 15.0398L28 15.0377Z" fill="white"/>
</g>
<defs>
<clipPath id="clip0">
<rect width="16" height="16" fill="white" transform="translate(12 12)"/>
</clipPath>
</defs>
</svg>
