<svg width="40" height="40" viewBox="0 0 40 40" fill="none" xmlns="http://www.w3.org/2000/svg">
<circle cx="20" cy="20" r="20" fill="#7289DA"/>
<path d="M25.36 12.0017H14.6401C13.736 12.0017 13 12.7365 13 13.6471V24.4458C13 25.3563 13.736 26.0911 14.64 26.0911H23.712L23.288 24.6135L24.312 25.564L25.28 26.4585L27 27.9761V13.6471C27 12.7365 26.264 12.0017 25.36 12.0017ZM22.272 22.433C22.272 22.433 21.984 22.0896 21.744 21.786C22.792 21.4905 23.192 20.8356 23.192 20.8356C22.864 21.0512 22.552 21.203 22.272 21.3068C21.872 21.4745 21.488 21.5863 21.112 21.6502C20.344 21.794 19.64 21.7541 19.04 21.6423C18.584 21.5544 18.192 21.4266 17.864 21.2988C17.68 21.2269 17.48 21.1391 17.28 21.0273C17.256 21.0113 17.232 21.0033 17.208 20.9873C17.192 20.9793 17.184 20.9713 17.176 20.9634C17.032 20.8835 16.952 20.8276 16.952 20.8276C16.952 20.8276 17.336 21.4666 18.352 21.77C18.112 22.0736 17.816 22.433 17.816 22.433C16.048 22.3771 15.376 21.219 15.376 21.219C15.376 18.6471 16.528 16.5624 16.528 16.5624C17.68 15.6998 18.776 15.7237 18.776 15.7237L18.856 15.8196C17.416 16.2348 16.752 16.8659 16.752 16.8659C16.752 16.8659 16.928 16.7701 17.224 16.6343C18.08 16.2589 18.76 16.1551 19.04 16.1311C19.088 16.1231 19.128 16.1151 19.176 16.1151C19.7121 16.0454 20.2547 16.04 20.792 16.0992C21.552 16.187 22.368 16.4107 23.2 16.8659C23.2 16.8659 22.568 16.2669 21.208 15.8516L21.32 15.7238C21.32 15.7238 22.416 15.6998 23.568 16.5624C23.568 16.5624 24.72 18.6471 24.72 21.219C24.72 21.219 24.04 22.3771 22.272 22.433V22.433ZM18.552 18.703C18.096 18.703 17.736 19.1023 17.736 19.5895C17.736 20.0768 18.104 20.4761 18.552 20.4761C19.008 20.4761 19.368 20.0768 19.368 19.5895C19.376 19.1023 19.008 18.703 18.552 18.703H18.552ZM21.472 18.703C21.016 18.703 20.656 19.1023 20.656 19.5895C20.656 20.0768 21.024 20.4761 21.472 20.4761C21.928 20.4761 22.288 20.0768 22.288 19.5895C22.288 19.1023 21.928 18.703 21.472 18.703Z" fill="white"/>
</svg>
